<?xml version="1.0" standalone="no"?>
<!DOCTYPE svg PUBLIC "-//W3C//DTD SVG 20010904//EN"
 "http://www.w3.org/TR/2001/REC-SVG-20010904/DTD/svg10.dtd">
<svg version="1.0" xmlns="http://www.w3.org/2000/svg"
 width="8333.000000pt" height="8333.000000pt" viewBox="0 0 8333.000000 8333.000000"
 preserveAspectRatio="xMidYMid meet">
<metadata>
Created by potrace 1.11, written by Peter Selinger 2001-2013
</metadata>
<g transform="translate(0.000000,8333.000000) scale(0.100000,-0.100000)"
fill="#000000" stroke="none">
<path d="M36645 70904 c-601 -16 -1120 -40 -1605 -75 -4834 -342 -9518 -1814
-13675 -4297 -1957 -1169 -3758 -2532 -5440 -4116 -245 -232 -999 -986 -1231
-1231 -2450 -2600 -4401 -5529 -5836 -8760 -1535 -3454 -2429 -7208 -2618
-10990 -48 -967 -52 -2096 -10 -3015 151 -3296 797 -6457 1945 -9525 600
-1601 1377 -3235 2251 -4732 2401 -4110 5722 -7624 9694 -10258 2960 -1963
6208 -3392 9655 -4249 4020 -998 8273 -1180 12395 -530 3723 587 7312 1853
10580 3732 1882 1081 3643 2354 5255 3797 797 713 1738 1654 2450 2450 2332
2606 4248 5652 5557 8835 44 107 85 200 92 206 6 6 74 39 151 74 174 79 624
304 810 406 628 343 1223 743 1688 1136 326 275 441 351 703 464 392 170 856
287 1882 474 244 44 524 96 624 115 618 120 1199 167 2418 195 930 22 1291 44
1735 106 1079 151 1891 518 2276 1027 307 406 370 890 170 1302 -104 212 -413
578 -916 1081 -464 465 -884 836 -1435 1269 -214 168 -4398 3296 -4640 3470
-995 710 -2129 1382 -3107 1838 l-122 57 -5 52 c-3 29 -12 193 -21 363 -77
1501 -292 3143 -611 4658 -498 2370 -1243 4595 -2284 6822 -124 265 -519 1054
-666 1330 -3336 6278 -8724 11236 -15244 14028 -2993 1281 -6169 2080 -9425
2371 -531 48 -1082 82 -1680 106 -255 10 -1523 20 -1760 14z m1340 -3334
c1647 -45 3177 -214 4737 -524 4765 -946 9187 -3132 12864 -6357 816 -716
1684 -1577 2403 -2384 1030 -1156 1935 -2353 2751 -3640 2102 -3316 3471
-7033 4019 -10915 59 -418 147 -1157 138 -1166 -5 -6 -970 390 -1427 586 -807
346 -1719 777 -2270 1072 l-155 83 -290 260 c-851 763 -1371 1196 -2060 1714
-828 623 -1316 1047 -2975 2586 -1462 1356 -2086 1894 -2965 2555 -380 286
-545 417 -1014 808 -201 168 -440 365 -532 438 -184 147 -4160 3123 -4447
3329 -608 436 -1330 818 -2217 1173 -402 161 -412 164 -546 170 -69 2 -138 0
-170 -7 -30 -6 -189 -55 -354 -107 -1329 -423 -2694 -789 -3630 -974 -174 -34
-213 -39 -230 -29 -11 7 -677 503 -1480 1104 -803 600 -1496 1116 -1540 1147
-413 288 -919 493 -1435 582 -530 92 -1237 109 -2015 51 -1589 -121 -3775
-558 -4935 -987 -223 -83 -313 -131 -845 -455 -1780 -1082 -3246 -2019 -4415
-2821 -2896 -1989 -4395 -3386 -4729 -4407 -64 -197 -76 -272 -76 -490 1 -870
377 -2053 984 -3090 l77 -132 -100 -82 c-155 -127 -273 -236 -491 -455 -361
-362 -588 -661 -764 -1006 -154 -302 -212 -495 -251 -836 -11 -95 -26 -219
-34 -276 -52 -368 -43 -637 28 -844 65 -191 172 -348 388 -569 180 -183 274
-267 813 -717 215 -179 496 -416 625 -527 129 -111 386 -316 572 -456 257
-195 335 -258 332 -272 -18 -77 -80 -448 -113 -678 -203 -1405 -209 -2748 -20
-4085 338 -2395 1308 -4599 2813 -6395 290 -346 764 -842 1081 -1130 401 -366
578 -506 1620 -1285 473 -354 1414 -1058 2090 -1565 677 -507 1304 -975 1394
-1039 1080 -769 2309 -1360 3592 -1730 952 -274 1886 -426 2924 -476 414 -20
1082 -11 1520 20 1604 114 3186 513 4705 1186 300 133 902 432 1185 590 2050
1140 3845 2751 5230 4694 134 189 377 550 499 742 43 68 72 105 80 101 6 -4
71 -49 144 -101 1166 -820 2195 -1213 3592 -1372 438 -50 822 -133 1234 -267
352 -115 553 -192 1316 -511 979 -408 1494 -573 2115 -677 390 -65 621 -83
1215 -91 847 -13 1711 38 2600 151 238 31 629 87 682 99 15 3 16 1 6 -17 -588
-1120 -1362 -2354 -2144 -3422 -1938 -2643 -4313 -4914 -7039 -6732 -1267
-844 -2590 -1576 -3985 -2205 -4024 -1814 -8441 -2633 -12900 -2393 -4139 224
-8145 1361 -11769 3342 -3014 1647 -5718 3858 -7930 6483 -4749 5635 -7041
12829 -6436 20200 338 4106 1580 8059 3653 11625 1465 2520 3344 4821 5527
6770 3397 3032 7466 5177 11860 6250 2383 582 4890 851 7320 785z m-3800
-9970 c557 -28 861 -93 1201 -260 358 -176 672 -443 993 -845 128 -159 242
-318 451 -625 390 -574 556 -778 787 -969 391 -324 786 -397 1593 -295 948
119 2503 507 4321 1077 l267 83 108 -43 c667 -267 1228 -552 1704 -868 327
-217 526 -371 1145 -886 500 -416 652 -537 1082 -862 875 -660 1430 -1140
2908 -2512 1573 -1461 2158 -1968 2990 -2595 758 -571 1213 -955 2415 -2036
940 -845 1320 -1172 1795 -1545 917 -718 1701 -1200 3033 -1862 1096 -546
2007 -939 4032 -1740 2119 -839 2850 -1164 3740 -1665 1476 -831 2758 -1770
3754 -2752 257 -254 524 -537 518 -549 -14 -24 -339 -126 -543 -171 -471 -103
-865 -136 -1909 -160 -1389 -32 -2006 -84 -2780 -235 -96 -19 -384 -72 -640
-119 -892 -163 -1242 -245 -1705 -400 -484 -162 -873 -358 -1205 -605 -41 -31
-151 -121 -245 -201 -383 -326 -719 -566 -1173 -839 -1769 -1062 -4219 -1768
-6712 -1936 -566 -37 -1414 -50 -1815 -25 -397 23 -716 78 -1110 191 -376 107
-617 197 -1455 547 -811 338 -1191 473 -1695 602 -343 89 -612 137 -1055 190
-1168 139 -1951 443 -2954 1147 -83 59 -322 231 -531 383 -881 641 -1253 879
-1803 1154 -635 318 -1463 625 -2134 792 -43 10 -69 22 -72 33 -3 9 -16 77
-30 151 -121 661 -69 1374 169 2295 107 417 211 745 525 1650 285 823 350
1028 439 1382 109 435 135 629 136 988 0 246 -3 295 -22 400 -39 212 -99 390
-265 780 -326 765 -701 1329 -1110 1667 -476 394 -988 576 -1903 677 -436 49
-921 86 -1110 85 -430 -1 -779 -90 -1996 -512 -908 -315 -1317 -447 -1773
-572 -867 -237 -1667 -354 -2197 -321 -578 36 -958 170 -1214 426 -205 204
-282 400 -310 792 -39 539 -132 927 -310 1283 -292 587 -744 911 -1395 1002
-139 19 -505 16 -655 -5 -1167 -167 -2646 -939 -4580 -2391 -1077 -808 -2347
-1889 -3475 -2957 l-176 -166 -39 34 c-22 19 -213 180 -425 356 -368 308 -546
461 -673 578 l-58 54 25 190 c14 105 30 235 37 290 14 123 41 200 110 311 225
359 736 833 1312 1216 199 133 280 205 350 314 101 156 141 290 141 474 -1
201 -40 310 -185 505 -353 477 -716 1164 -925 1752 -131 370 -215 730 -245
1051 l-13 132 42 82 c94 185 266 393 596 724 423 422 900 829 1610 1374 1469
1127 3696 2601 6290 4165 404 244 471 271 1089 439 1748 478 3737 763 4912
706z m-5292 -10790 c264 -82 391 -377 427 -990 13 -222 24 -309 61 -493 196
-980 923 -1669 2018 -1912 332 -73 594 -99 1001 -100 393 0 732 30 1185 105
848 141 1574 347 3130 888 817 284 1101 369 1351 407 96 14 113 14 584 -26
760 -63 981 -96 1246 -190 471 -166 776 -522 1109 -1293 93 -216 192 -472 206
-535 15 -68 12 -262 -6 -387 -48 -329 -155 -690 -479 -1621 -225 -649 -348
-1019 -441 -1333 -479 -1618 -529 -2885 -158 -4025 74 -228 140 -336 264 -430
95 -71 171 -102 367 -146 803 -180 1644 -485 2310 -838 89 -47 162 -90 162
-95 0 -13 -195 -321 -336 -531 -2108 -3141 -5453 -5262 -8969 -5689 -530 -64
-803 -80 -1380 -80 -480 -1 -657 6 -1015 40 -1858 173 -3593 821 -5058 1888
-1404 1022 -2532 2411 -3265 4016 -556 1219 -874 2496 -974 3920 -21 302 -24
1146 -5 1430 99 1479 388 2761 922 4085 158 392 444 1006 484 1040 12 11 155
126 317 256 1824 1461 3311 2368 4268 2603 119 30 175 39 361 60 74 8 253 -5
313 -24z"/>
<path d="M24613 42335 c-95 -21 -179 -70 -260 -151 -66 -66 -79 -87 -167 -265
-100 -206 -164 -366 -215 -545 -228 -794 -164 -1608 178 -2270 350 -675 957
-1115 1668 -1209 152 -20 432 -20 588 0 758 98 1478 573 1960 1296 170 254
210 353 203 509 -3 88 -7 104 -40 171 -22 44 -57 93 -85 121 -60 58 -3495
2293 -3574 2325 -72 29 -176 37 -256 18z"/>
<path d="M34201 39684 c-164 -44 -317 -174 -395 -335 -112 -234 -229 -631
-282 -956 -42 -261 -55 -602 -33 -843 93 -1030 640 -1812 1460 -2084 231 -77
412 -106 666 -106 514 0 1018 169 1523 511 188 127 324 242 526 443 238 239
386 423 562 699 146 229 319 580 348 705 31 130 6 297 -59 394 -12 18 -74 72
-137 119 l-115 86 -1855 668 c-1020 368 -1888 679 -1928 692 -85 27 -196 30
-281 7z"/>
</g>
</svg>
